<svg xmlns="http://www.w3.org/2000/svg" width="36" height="36" viewBox="0 0 36 36">
    <path d="M18 0A17.988 17.988 0 0 0 .321 21.369l-.068.081c.032.027.064.05.1.077A18 18 0 1 0 18 0zm15.331 11.679c-.024 5.84-5.232 7.085-7.421 7.349a36.989 36.989 0 0 0 .906-15.066 16.69 16.69 0 0 1 6.515 7.717zm-8.1-8.6a35.258 35.258 0 0 1-.775 15.873c-4.219-1.118-4.818-4.191-5.617-8.374a23.934 23.934 0 0 0-3.1-9.007A16.675 16.675 0 0 1 18 1.415a16.478 16.478 0 0 1 7.235 1.665zM14.229 1.852c2.06 2.91 2.679 6.134 3.225 8.992C18.247 15 19 18.929 24.011 20.3a25.059 25.059 0 0 1-1.331 3.035 52.09 52.09 0 0 1-18.148-15 16.618 16.618 0 0 1 9.697-6.483zM3.709 9.6a53.786 53.786 0 0 0 18.28 14.973 22.508 22.508 0 0 1-1.29 1.918 20 20 0 0 0-7.786-1.77c-3.441-.281-7-.581-11.265-3.964A16.5 16.5 0 0 1 3.709 9.6zm-1.56 13.284c3.983 2.7 7.364 2.978 10.648 3.246a19.123 19.123 0 0 1 6.994 1.495 23.839 23.839 0 0 1-7.674 5.875 16.662 16.662 0 0 1-9.968-10.616zM14.024 34.1a24.781 24.781 0 0 0 7.069-5.816 5.343 5.343 0 0 1 2.631 2.806 3.242 3.242 0 0 1-.607 2.684 16.539 16.539 0 0 1-9.093.326zm11.015-1.087a4.086 4.086 0 0 0 .047-2.3 6.528 6.528 0 0 0-3.112-3.551q.713-.973 1.306-1.982a42.418 42.418 0 0 0 8.042 2.692 16.691 16.691 0 0 1-6.283 5.141zm7.134-6.407a40.947 40.947 0 0 1-8.205-2.672 26.41 26.41 0 0 0 1.476-3.444 11.448 11.448 0 0 0 7.076-2.954 7.476 7.476 0 0 0 1.738-2.82 16.566 16.566 0 0 1-2.085 11.889z" data-name="패스 26"/>
</svg>
