<svg xmlns="http://www.w3.org/2000/svg" width="36" height="36" viewBox="0 0 36 36">
    <path d="M32.807 7.774A17.878 17.878 0 0 0 21.239.297a18 18 0 0 0-6.481 35.406 18.17 18.17 0 0 0 3.26.3A18 18 0 0 0 32.807 7.774zM2.1 15.089a16.14 16.14 0 0 1 4.067-8.108 16.262 16.262 0 0 1 1.173 1.41l-.746.724a.917.917 0 1 0 1.277 1.316l.492-.478a16.12 16.12 0 0 1 .865 1.738l-1.051.453a.917.917 0 1 0 .723 1.683l.945-.407a16.08 16.08 0 0 1 .437 1.894l-.877.086a.917.917 0 0 0 .095 1.83.9.9 0 0 0 .091 0l.9-.088a16.163 16.163 0 0 1-.007 1.839l-.89-.087a.917.917 0 0 0-.179 1.825l.854.084-.019.113a16.462 16.462 0 0 1-.428 1.769l-.922-.398a.917.917 0 0 0-.726 1.684l1.009.435a15.966 15.966 0 0 1-.863 1.717l-.452-.439a.917.917 0 0 0-1.275 1.313l.7.678a16.132 16.132 0 0 1-1.119 1.333A16.151 16.151 0 0 1 2.1 15.089zm15.918 19.077a16.32 16.32 0 0 1-2.93-.267A16.063 16.063 0 0 1 7.5 30.281q.594-.634 1.122-1.317l.647.628a.917.917 0 0 0 1.277-1.316l-.869-.844a17.741 17.741 0 0 0 1.2-2.3l.727.313a.917.917 0 0 0 .726-1.684l-.814-.351a18.278 18.278 0 0 0 .537-2.169c.016-.088.029-.176.044-.264l1.023.1h.091a.917.917 0 0 0 .089-1.829l-.99-.1a18 18 0 0 0 .009-2.2l.981-.1a.917.917 0 0 0-.179-1.825l-1 .1a17.932 17.932 0 0 0-.573-2.444l.78-.336a.917.917 0 0 0-.726-1.684l-.684.295a17.959 17.959 0 0 0-1.2-2.325l.827-.8a.917.917 0 0 0-1.279-1.307l-.6.581a18.138 18.138 0 0 0-1.175-1.391 16.1 16.1 0 0 1 10.488-3.878 16.315 16.315 0 0 1 2.93.267 16.067 16.067 0 0 1 7.531 3.553 18.083 18.083 0 0 0-1.231 1.448l-.6-.581a.917.917 0 0 0-1.277 1.316l.827.8a17.933 17.933 0 0 0-1.2 2.325l-.684-.295a.917.917 0 0 0-.726 1.684l.78.336a17.932 17.932 0 0 0-.573 2.444l-1-.1a.917.917 0 0 0-.179 1.825l.981.1a18 18 0 0 0 .009 2.2l-.99.1a.917.917 0 0 0 .089 1.829.9.9 0 0 0 .091 0l1.023-.1c.015.088.028.176.044.264a18.269 18.269 0 0 0 .537 2.168l-.814.351a.917.917 0 1 0 .726 1.684l.727-.313a17.766 17.766 0 0 0 1.2 2.3l-.869.844a.917.917 0 1 0 1.28 1.314l.647-.628a18.007 18.007 0 0 0 1.182 1.381 16.1 16.1 0 0 1-10.422 3.816zM33.9 20.91a16.142 16.142 0 0 1-4.127 8.173 16.119 16.119 0 0 1-1.187-1.406l.7-.678a.917.917 0 0 0-1.277-1.316l-.452.439a15.94 15.94 0 0 1-.863-1.717l1.009-.435a.917.917 0 0 0-.726-1.684l-.912.393a16.457 16.457 0 0 1-.428-1.769l-.019-.113.854-.084a.917.917 0 0 0-.179-1.825l-.89.087a16.13 16.13 0 0 1-.007-1.839l.9.088h.091a.917.917 0 0 0 .089-1.829l-.877-.086a16.109 16.109 0 0 1 .437-1.894l.945.407a.917.917 0 0 0 .726-1.684l-1.051-.453a16.12 16.12 0 0 1 .865-1.738l.492.478a.917.917 0 0 0 1.277-1.316l-.746-.724a16.243 16.243 0 0 1 1.232-1.473 16.37 16.37 0 0 1 1.53 1.9A16.057 16.057 0 0 1 33.9 20.91z"/>
</svg>
