<svg xmlns="http://www.w3.org/2000/svg" width="36" height="36" viewBox="0 0 36 36">
    <path d="M18 0a18 18 0 1 0 18 18A18 18 0 0 0 18 0zm.642 5.189l6.258-2.5A16.838 16.838 0 0 1 26.956 3.8l.016.01a16.9 16.9 0 0 1 1.852 1.358l.05.044q.394.336.767.695c.031.031.064.06.1.091q.391.381.757.786l.06.07c.214.24.42.488.62.741.048.06.1.12.143.18.217.281.427.566.625.861l-1.247 5.3-6.137 2.046-5.912-4.731zM4.683 7.775l.142-.18q.3-.376.613-.733l.062-.076q.368-.406.758-.786c.03-.029.06-.06.091-.087q.37-.356.76-.691l.06-.05A16.962 16.962 0 0 1 9 3.822l.023-.015A16.854 16.854 0 0 1 11.071 2.7l6.286 2.489v6.06l-5.912 4.73-6.137-2.042L4.06 8.634c.2-.294.407-.579.623-.859zM3.96 27.207q-.265-.4-.506-.822l-.039-.067q-.24-.417-.454-.847v-.009a16.717 16.717 0 0 1-.79-1.86V23.6c-.107-.3-.2-.607-.294-.916l-.033-.114q-.123-.435-.224-.881l-.019-.085a16.7 16.7 0 0 1-.317-2.032l3.663-4.4 6.091 2.028 1.769 7.075L9.9 28.146zM22 34.316c-.3.074-.608.139-.916.2l-.13.023a14.85 14.85 0 0 1-.793.12l-.212.027c-.247.029-.5.05-.745.068-.079.005-.156.013-.235.018-.319.02-.641.031-.965.031q-.445 0-.885-.023c-.035 0-.069-.006-.1-.008q-.392-.022-.78-.06L16.2 34.7a17.1 17.1 0 0 1-1.692-.27l-3.549-5.557 2.861-3.815h8.36l2.908 3.84zM34.408 21.6l-.019.085q-.1.445-.224.881l-.032.114c-.09.309-.187.615-.294.916v.004a16.661 16.661 0 0 1-.79 1.86v.009q-.215.431-.454.847l-.039.067q-.24.42-.505.821l-5.92.933-2.931-3.861 1.767-7.076 6.095-2.031 3.663 4.4a16.66 16.66 0 0 1-.317 2.033zm0 0"/>
</svg>
