<svg xmlns="http://www.w3.org/2000/svg" width="44" height="37" viewBox="0 0 44 37">
    <defs>
        <style>
            .cls-1{fill:#fff}
        </style>
    </defs>
    <g id="menu-symbol-of-three-parallel-lines" transform="translate(0 -7.875)">
        <path id="패스_31" d="M0 5.4a3.541 3.541 0 0 1 3.556-3.525h36.888a3.524 3.524 0 1 1 0 7.048H3.556A3.541 3.541 0 0 1 0 5.4zm40.444 11.451H3.556a3.524 3.524 0 1 0 0 7.048h36.888a3.524 3.524 0 1 0 0-7.048zm0 14.976H3.556a3.524 3.524 0 1 0 0 7.048h36.888a3.524 3.524 0 1 0 0-7.048z" class="cls-1" data-name="패스 31" transform="translate(0 6)"/>
    </g>
</svg>
