<svg xmlns="http://www.w3.org/2000/svg" width="36" height="36" viewBox="0 0 36 36">
    <g data-name="그룹 355">
        <path d="M32.406 3.538c-4.107-4.063-11.09-4.681-17.118-1.569a6.107 6.107 0 0 0-8.247.3 5.964 5.964 0 0 0-.051 8.441 11.624 11.624 0 0 0-.855 3.607.685.685 0 0 0-.027.132 10.9 10.9 0 0 0 .066 1.95.042.042 0 0 1 0 .008 11.247 11.247 0 0 0 .206 1.158l.028.119c.089.369.2.737.322 1.1.016.046.035.092.051.139.134.371.282.741.454 1.108a4.555 4.555 0 0 1 .367 3.017c-.024.1-.058.189-.086.283-.037.124-.07.252-.114.372s-.093.222-.141.333c-.041.095-.076.193-.121.285-.061.126-.135.244-.205.365-.042.071-.078.147-.122.217-.083.13-.178.253-.271.377-.042.056-.078.115-.122.17-.107.134-.228.261-.349.389-.039.041-.072.085-.113.126-.13.13-.272.255-.416.379-.04.035-.075.071-.117.106a8.496 8.496 0 0 1-.547.413l-.058.044q-.321.222-.679.432a25.006 25.006 0 0 0-2.479 1.623l-.966.735a1.75 1.75 0 0 0-.174 2.644l3.175 3.141A1.789 1.789 0 0 0 4.956 36h.131a1.786 1.786 0 0 0 1.3-.706l1-1.329c.288-.383.574-.8.865-1.256.2-.311.4-.635.6-.987q.2-.352.421-.667a7.178 7.178 0 0 1 1.878-1.923c.024-.016.047-.037.072-.053.131-.086.268-.161.4-.236.054-.03.106-.065.161-.094.121-.062.248-.112.373-.166.076-.033.149-.071.228-.1.11-.042.226-.074.339-.11s.2-.069.3-.1a4.475 4.475 0 0 1 2.575.128c.161.054.316.111.452.169l.018.007c.271.115.543.217.816.313.07.025.14.047.21.07q.381.126.764.226l.072.02a11.352 11.352 0 0 0 3.429.342.678.678 0 0 0 .1-.02 14.6 14.6 0 0 0 9.249-4.612c6.318-6.249 7.094-16.039 1.697-21.378zM7.9 3.123a4.893 4.893 0 0 1 6.869 0 4.777 4.777 0 0 1-.361 7.117c-.044.036-.092.067-.137.1-.082.061-.163.124-.248.18a1.82 1.82 0 0 1-.175.1c-.076.046-.151.092-.229.134s-.133.063-.2.094-.146.071-.221.1-.144.053-.217.079-.144.053-.217.075-.154.041-.231.061-.141.037-.212.051-.164.028-.246.041-.135.022-.2.029c-.088.01-.177.014-.265.019-.061 0-.123.008-.185.009-.1 0-.191 0-.287-.005-.054 0-.107 0-.161-.008-.1-.008-.208-.02-.311-.034-.044-.006-.087-.011-.131-.019a5.582 5.582 0 0 1-.337-.068l-.1-.023a4.727 4.727 0 0 1-.363-.11l-.055-.015q-.2-.07-.386-.157l-.024-.011a4.871 4.871 0 0 1-1.163-.762l-.127-.115c-.024-.023-.051-.043-.075-.067A4.775 4.775 0 0 1 7.9 3.123zM5.412 34.572a.571.571 0 0 1-.856.062L1.38 31.493a.559.559 0 0 1 .055-.842l.966-.735a23.6 23.6 0 0 1 2.359-1.542 10.733 10.733 0 0 0 1.475-1.029q.328-.275.617-.569c.017-.017.03-.036.047-.053.174-.18.34-.364.492-.555.024-.03.043-.063.067-.094.14-.18.274-.363.395-.553.029-.046.052-.1.081-.144a5.89 5.89 0 0 0 .3-.544c.028-.056.048-.117.074-.174.084-.182.166-.365.236-.555.022-.063.038-.13.059-.194.062-.186.124-.372.174-.566v-.012a5.66 5.66 0 0 0-.447-3.8c-.069-.147-.122-.295-.185-.443a10.42 10.42 0 0 1-.834-3.479l12.882 12.734h-.008a10.052 10.052 0 0 1-.863-.089l-.064-.008c-.273-.041-.546-.1-.818-.159-.033-.008-.067-.013-.1-.022a11.681 11.681 0 0 1-.789-.226c-.039-.013-.079-.022-.118-.035-.3-.1-.6-.213-.892-.339a6.766 6.766 0 0 0-1.3-.405c-.056-.011-.113-.027-.169-.037s-.109-.014-.163-.022c-.108-.016-.216-.034-.323-.043h-.061a5.962 5.962 0 0 0-.421-.021h-.013q-.232 0-.461.017c-.044 0-.086.011-.129.016-.113.012-.225.023-.336.043a5.33 5.33 0 0 0-.375.082c-.026.007-.052.01-.078.017h-.007a8.29 8.29 0 0 0-.7.226l-.053.017a7.234 7.234 0 0 0-.654.288c-.019.01-.039.016-.058.026-.2.1-.393.216-.583.336-.027.017-.057.031-.085.049-.2.128-.386.268-.571.417-.018.014-.038.026-.055.041a9.4 9.4 0 0 0-2.149 2.608 21.5 21.5 0 0 1-1.387 2.121zM21.865 28.3c-.005-.005-.008-.013-.013-.018L7.38 13.971h-.007a10.42 10.42 0 0 1 .587-2.452 6 6 0 0 0 .9.486l.038.017c.135.058.271.11.409.159l.114.039c.125.041.251.077.378.11.053.014.106.026.158.038a6.093 6.093 0 0 0 .888.139c.072.006.144.007.217.01.09 0 .181.013.272.013h.05c.094 0 .188-.008.282-.013.151-.008.3-.021.45-.04.11-.014.221-.027.33-.047.078-.014.154-.034.231-.051.1-.023.207-.046.31-.074.077-.022.154-.047.23-.071.1-.032.2-.066.3-.1.075-.029.15-.059.224-.091q.148-.063.293-.135a5.288 5.288 0 0 0 .505-.28c.064-.04.129-.078.192-.12.105-.07.207-.147.308-.224l.153-.116c.149-.122.294-.25.434-.388s.274-.287.4-.437c.044-.053.081-.108.123-.162.078-.1.155-.2.225-.3.045-.067.085-.135.127-.2.059-.094.118-.189.171-.285.041-.074.077-.151.114-.227.046-.093.091-.186.132-.281s.065-.162.1-.244.069-.186.1-.28.052-.171.075-.258.048-.185.069-.278.038-.179.053-.269a6.23 6.23 0 0 0 .07-.553c.008-.093.01-.177.013-.266s.007-.193.005-.289-.007-.169-.012-.253c-.006-.1-.01-.2-.021-.3-.008-.077-.022-.154-.033-.231-.016-.107-.03-.214-.051-.32-.012-.056-.028-.111-.041-.166a5.97 5.97 0 0 0-.426-1.21c-.027-.056-.05-.113-.079-.169-.052-.1-.11-.2-.168-.294-.042-.067-.08-.135-.122-.2-.058-.089-.121-.175-.183-.261-.037-.052-.07-.105-.109-.156C21.641.172 27.88.759 31.547 4.387c4.931 4.879 4.156 13.89-1.694 19.678a13.59 13.59 0 0 1-7.988 4.235z" data-name="패스 29"/>
        <path d="M9.026 10.855a4 4 0 0 1 4-4 1 1 0 0 0 0-2 6.006 6.006 0 0 0-6 6 1 1 0 1 0 2 0z" data-name="패스 30"/>
    </g>
</svg>
