<svg xmlns="http://www.w3.org/2000/svg" width="36" height="36" viewBox="0 0 36 36">
    <path d="M35.119 16.221l-6.331-1.417-.673-5.931a1.118 1.118 0 0 0-.99-.99l-5.834-.659L20.6.996a1.123 1.123 0 0 0-.45-.77 1.1 1.1 0 0 0-.868-.207l-6.363 1.125a1.126 1.126 0 0 0-.873.749l-6.28 18.794-2.994 2.995-.8.8a6.75 6.75 0 1 0 9.546 9.544l.8-.8 2.995-2.995 18.793-6.28a1.133 1.133 0 0 0 .747-.844l1.125-5.566a1.129 1.129 0 0 0-.859-1.32zM20.8 9.428l5.182.587.589 5.184-14.136 10.197-1.829-1.829zm-6.833-6.187l4.525-.8.612 5.49L9 21.951l-.963-.955zM3.568 32.431a4.5 4.5 0 0 1 0-6.363l6.363 6.363a4.6 4.6 0 0 1-6.363 0zm7.953-1.591l-6.362-6.362 1.591-1.593 6.365 6.365zm21.253-8.815l-17.767 5.938-.958-.958 13.96-10.069 5.544 1.24z" data-name="패스 27"/>
</svg>
