<svg xmlns="http://www.w3.org/2000/svg" width="36" height="36" viewBox="0 0 36 36">
    <path d="M18 0a18 18 0 1 0 18 18A18.01 18.01 0 0 0 18 0zm0 1.333a16.78 16.78 0 0 1 3.21.309C14.334 3.478 9.1 7.585 4.812 12.239a20.678 20.678 0 0 1-1.87-1.4A16.657 16.657 0 0 1 18 1.333zm5.908 1.077a16.628 16.628 0 0 1 4.351 2.45c-5.94 1.6-11.754 5.35-16.759 10.44a28.581 28.581 0 0 1-5.535-2.351C10.6 7.963 16.253 3.762 23.908 2.41zm5.587 3.516a16.727 16.727 0 0 1 2.493 3 32.881 32.881 0 0 0-14.168 8.311c-1.641-.552-3.27-1-4.88-1.487 5.015-4.961 10.801-8.497 16.555-9.824zm3.195 4.188a16.695 16.695 0 0 1-1.99 18.68c1.675-6.563.127-11.862-1.06-17.666q1.468-.564 3.049-1.014zm-4.3 1.528c1.335 6.465 2.954 11.876.3 19.149a16.641 16.641 0 0 1-4.6 2.731 36.5 36.5 0 0 0-.295-19.414 31.116 31.116 0 0 1 4.593-2.465zm-25.99.48c4.894 3.953 10.068 4.731 14.957 6.366.087 1.756.165 3.5.165 5.222-6.866-1.795-11.9-4.2-15.944-8.558a16.567 16.567 0 0 1 .822-3.03zM22.628 14.9a34.7 34.7 0 0 1-.082 19.136 16.708 16.708 0 0 1-4.546.631q-.463 0-.92-.025c2.124-5.267 1.874-10.873 1.6-16.378a31.994 31.994 0 0 1 3.948-3.364zM1.373 16.859C5.563 21 10.766 23.353 17.5 25.083a31.083 31.083 0 0 1-.584 5.472c-4.484-.9-10.093-2.4-15.04-8.315A16.725 16.725 0 0 1 1.333 18c0-.384.014-.764.04-1.141zm1.711 8.589c4.616 4.287 9.611 5.615 13.524 6.4a20.039 20.039 0 0 1-.915 2.655 16.665 16.665 0 0 1-12.609-9.06z"/>
</svg>

